<?xml version="1.0" standalone="no"?>
<!DOCTYPE svg PUBLIC "-//W3C//DTD SVG 20010904//EN"
 "http://www.w3.org/TR/2001/REC-SVG-20010904/DTD/svg10.dtd">
<svg version="1.0" xmlns="http://www.w3.org/2000/svg"
 width="330.000000pt" fill="#745ed7" height="150.000000pt" viewBox="0 0 330.000000 150.000000"
 preserveAspectRatio="xMidYMid meet">

<g transform="translate(0.000000,150.000000) scale(0.100000,-0.100000)"
fill="#000000" stroke="none">
<path fill="#745ed7" d="M430 1054 l0 -96 -95 50 -95 50 0 -221 0 -222 190 -102 190 -102 277
148 278 149 3 221 c1 121 -1 221 -4 221 -4 0 -87 -43 -184 -95 -97 -52 -180
-95 -184 -95 -4 0 -88 43 -185 95 -98 52 -181 95 -185 95 -3 0 -6 -43 -6 -96z
m188 -48 c75 -41 149 -80 163 -86 25 -11 40 -5 187 74 89 47 163 86 167 86 3
0 4 -77 3 -171 l-3 -171 -165 -89 -164 -89 -66 34 c-36 19 -110 59 -165 89
l-100 55 -3 171 c-1 94 0 171 3 171 3 0 67 -33 143 -74z m-252 -62 l64 -36 0
-98 0 -98 164 -88 164 -88 -69 -38 -68 -37 -171 91 -170 90 0 169 c0 115 3
169 11 169 6 0 40 -16 75 -36z"/>
<path d="M1424 937 c-2 -7 -3 -58 -2 -113 l3 -99 60 -3 c74 -3 109 13 113 52
2 15 0 35 -4 44 -4 10 -8 37 -8 62 -1 37 -5 46 -26 57 -34 17 -129 17 -136 0z
m111 -57 c0 -9 -11 -16 -27 -18 -23 -3 -28 1 -28 18 0 17 5 21 28 18 16 -2 27
-9 27 -18z m5 -90 c0 -16 -7 -20 -30 -20 -23 0 -30 4 -30 20 0 16 7 20 30 20
23 0 30 -4 30 -20z"/>
<path d="M1637 944 c-4 -4 -7 -56 -7 -116 l0 -109 73 3 c66 3 72 5 75 26 3 20
-1 22 -42 22 l-45 0 -3 88 c-3 79 -5 87 -23 90 -12 2 -24 0 -28 -4z"/>
<path d="M1827 930 c-44 -35 -47 -150 -4 -191 29 -26 96 -26 131 2 24 19 26
26 26 94 0 68 -2 75 -26 94 -34 27 -93 27 -127 1z m91 -42 c17 -17 15 -93 -2
-108 -8 -6 -25 -10 -38 -8 -20 3 -23 10 -26 51 -2 27 2 55 9 63 14 17 41 18
57 2z"/>
<path  d="M2053 940 c-32 -13 -43 -41 -43 -110 0 -80 26 -110 95 -110 61 0 95
32 95 90 l0 40 -50 0 c-47 0 -50 -2 -50 -25 0 -19 5 -25 21 -25 28 0 19 -24
-11 -28 -29 -5 -50 21 -50 61 0 60 39 87 74 51 17 -17 56 -11 56 9 -1 45 -78
71 -137 47z"/>
<path d="M2237 943 c-4 -3 -7 -55 -7 -115 l0 -109 28 3 c23 3 27 8 30 41 4 47
20 45 45 -6 15 -30 24 -37 48 -37 33 0 36 10 13 45 -15 23 -15 28 1 60 24 52
12 93 -31 111 -34 14 -116 19 -127 7z m108 -73 c0 -9 -11 -16 -27 -18 -23 -3
-28 1 -28 18 0 17 5 21 28 18 16 -2 27 -9 27 -18z"/>
<path d="M2460 922 c-26 -26 -30 -38 -30 -82 0 -55 19 -104 45 -114 39 -15 96
-6 120 19 21 21 25 33 25 88 0 83 -17 107 -82 114 -42 5 -50 3 -78 -25z m100
-41 c15 -28 12 -87 -4 -101 -8 -6 -25 -10 -38 -8 -20 3 -23 9 -26 57 -3 56 5
71 40 71 10 0 22 -9 28 -19z"/>
<path d="M2654 937 c-2 -7 -3 -58 -2 -113 l3 -99 28 -3 c26 -3 27 -1 27 37 l0
41 40 0 c36 0 40 3 40 25 0 23 -4 25 -40 25 -33 0 -40 3 -40 19 0 17 8 20 48
23 43 3 47 5 47 28 0 24 -3 25 -73 28 -54 2 -74 -1 -78 -11z"/>
<path d="M2840 835 l0 -115 25 0 c23 0 25 4 25 40 l0 40 40 0 c36 0 40 3 40
25 0 23 -4 25 -40 25 -33 0 -40 3 -40 19 0 17 8 20 48 23 43 3 47 5 47 28 0
24 -3 25 -72 28 l-73 3 0 -116z"/>
</g>
</svg>
